# xmcd
#
# Track frame offsets:
#	150
#	16286
#	34542
#	57220
#	80640
#	100906
#	118128
#	132244
#	172710
#	189856
#	204089
#	228873
#	260346
#
# Disc length: 3657 seconds
#
# Revision: 1
# Processed by: cddbd v1.5PL3 Copyright (c) Steve Scherf et al.
# Submitted via: audiograbber 1.83.01
#
DISCID=980e470d
DTITLE=Julian Sas - For the lost and Found
DYEAR=1999
DGENRE=blues
TTITLE0=This time, my time
TTITLE1=A ain't afraid
TTITLE2=Working man's blues
TTITLE3=High and low
TTITLE4=Direction blues
TTITLE5=Make my water
TTITLE6=Spellbound woman
TTITLE7=Blues for J
TTITLE8=Don't tell me no lies
TTITLE9=Life's a devils ride
TTITLE10=Driftin' boogie
TTITLE11=Blues for the lost and found
TTITLE12=Restless heart
EXTD=
EXTT0=
EXTT1=
EXTT2=
EXTT3=
EXTT4=
EXTT5=
EXTT6=
EXTT7=
EXTT8=
EXTT9=
EXTT10=
EXTT11=
EXTT12=
PLAYORDER=
